<svg width="161" height="40" viewBox="0 0 161 40" fill="none" xmlns="http://www.w3.org/2000/svg">
  <path d="M148.606 23.7352C148.606 25.9094 147.956 26.5505 146.205 27.0801C144.313 27.6376 140.953 28 138.947 28C136.575 28 133.61 27.8606 131.097 27.2753V24.7666H145.019V21.338H135.163C132.198 21.338 131.097 20.5296 131.097 17.6864V16.1812C131.097 13.9233 131.774 13.2544 133.61 12.7805C135.474 12.3066 138.524 12 140.529 12C142.958 12 145.866 12.1951 148.38 12.7526V15.2613H134.683V18.1324H144.539C147.504 18.1324 148.606 18.9129 148.606 21.784V23.7352Z" fill="#041295"/>
  <path d="M124.856 27.274C121.975 27.8325 119.067 28 116.243 28C113.418 28 110.482 27.8325 107.573 27.274V12.7539C110.453 12.1955 113.39 12 116.186 12C119.01 12 121.862 12.1675 124.743 12.7539V15.3508H111.696V18.2548H120.196V21.2705H111.696V24.7051H124.799V27.274H124.856Z" fill="#041295"/>
  <path d="M102.631 27.2571C100.033 27.8286 97.4347 28 94.9213 28C92.408 28 89.7534 27.8571 87.1553 27.2571V12H91.3066V24.4286H102.631V27.2571Z" fill="#041295"/>
  <path d="M82.185 27.4255C80.8012 27.8276 78.9656 27.9713 77.61 28L71.1995 14.8438H70.8324L64.4501 28C63.0945 27.9713 61.4848 27.8276 60.1011 27.4255L68.206 12H73.9953L82.185 27.4255Z" fill="#041295"/>
  <path d="M73.7411 23.1498C73.7411 24.6272 72.5267 25.7979 71.03 25.7979C69.5333 25.7979 68.3472 24.5993 68.3472 23.1498C68.3472 21.6725 69.5615 20.5017 71.03 20.5017C72.5267 20.5017 73.7411 21.6725 73.7411 23.1498Z" fill="#00BCDD"/>
  <path d="M55.1025 27.4629C53.7752 27.8587 52.3632 27.9717 50.9512 28V21.4134H40.6435V28C39.2315 27.9717 37.8195 27.8304 36.4922 27.4629V12.5371C37.8195 12.1413 39.2315 12.0283 40.6435 12V18.3604H50.9512V12C52.3632 12.0283 53.7752 12.1696 55.1025 12.5371V27.4629Z" fill="#041295"/>
  <path d="M30.6745 15.451H23.3886V28H19.2655V15.451H11.9795V12.7701C15.1142 12.1996 18.2771 12 21.327 12C24.377 12 27.5399 12.1711 30.6745 12.7701V15.451Z" fill="#041295"/>
</svg>
